<svg width="50" height="50" viewBox="0 0 50 50" fill="none" xmlns="http://www.w3.org/2000/svg">
<mask id="path-2-inside-1_31_3" fill="white">
<path d="M26 50C20.4772 50 16 45.5228 16 40V37.5C16 36.3954 16.8954 35.5 18 35.5H46V48C46 49.1046 45.1046 50 44 50H26Z"/>
</mask>
<path d="M26 50C20.4772 50 16 45.5228 16 40V37.5C16 36.3954 16.8954 35.5 18 35.5H46V48C46 49.1046 45.1046 50 44 50H26Z" stroke="#1760C0" stroke-width="6" mask="url(#path-2-inside-1_31_3)"/>
<mask id="path-3-inside-2_31_3" fill="white">
<path d="M16 4H26C30.4183 4 34 7.58172 34 12V48C34 49.1046 33.1046 50 32 50H24C19.5817 50 16 46.4183 16 42V4Z"/>
</mask>
<path d="M16 4H26C30.4183 4 34 7.58172 34 12V48C34 49.1046 33.1046 50 32 50H24C19.5817 50 16 46.4183 16 42V4Z" stroke="#1760C0" stroke-width="6" mask="url(#path-3-inside-2_31_3)"/>
<mask id="path-4-inside-3_31_3" fill="white">
<path d="M21 46C15.4772 46 11 41.5228 11 36V33.5C11 32.3954 11.8954 31.5 13 31.5H41V44C41 45.1046 40.1046 46 39 46H21Z"/>
</mask>
<path d="M21 46C15.4772 46 11 41.5228 11 36V33.5C11 32.3954 11.8954 31.5 13 31.5H41V44C41 45.1046 40.1046 46 39 46H21Z" stroke="#4E90E6" stroke-width="6" mask="url(#path-4-inside-3_31_3)"/>
<mask id="path-5-inside-4_31_3" fill="white">
<path d="M11 0H21C25.4183 0 29 3.58172 29 8V44C29 45.1046 28.1046 46 27 46H19C14.5817 46 11 42.4183 11 38V0Z"/>
</mask>
<path d="M11 0H21C25.4183 0 29 3.58172 29 8V44C29 45.1046 28.1046 46 27 46H19C14.5817 46 11 42.4183 11 38V0Z" stroke="#4E90E6" stroke-width="6" mask="url(#path-5-inside-4_31_3)"/>
</svg>
