<?xml version="1.0" encoding="UTF-8"?>
<svg fill="none" viewBox="0 0 1600 900" xmlns="http://www.w3.org/2000/svg">
<g clip-path="url(#af)" filter="url(#ae)">
<path d="M0 0h1600v900H0z" fill="#fff"/>
<rect x="692.5" y="300.5" width="195" height="195" rx="22.5" fill="#030E1C"/>
<rect x="692.5" y="300.5" width="195" height="195" rx="22.5" stroke="#4E90E6" stroke-width="5"/>
<rect x="124.5" y="579.5" width="295" height="295" rx="22.5" fill="#030E1C"/>
<rect x="124.5" y="579.5" width="295" height="295" rx="22.5" stroke="#4E90E6" stroke-width="5"/>
<g filter="url(#ad)">
<rect x="1247" y="122" width="200" height="200" rx="25" fill="#3865A0"/>
</g>
<path d="m1187.9 152.62 17.68-17.678m-17.56 0 17.68 17.678" stroke="#4E90E6" stroke-width="3"/>
<g filter="url(#ac)">
<rect x="800" y="231" width="250" height="250" rx="25" fill="#3865A0"/>
</g>
<g filter="url(#ab)">
<rect x="256" y="523" width="380" height="380" rx="25" fill="#3865A0" fill-opacity=".7" shape-rendering="crispEdges"/>
<g filter="url(#aa)">
<path d="m278.94 595.02 31.82-31.82" stroke="#4E90E6" stroke-width="3"/>
</g>
<g filter="url(#z)">
<path d="m278.65 563.34 31.82 31.82" stroke="#4E90E6" stroke-width="3"/>
</g>
</g>
<rect x="945" y="212" width="75" height="75" rx="15" fill="#4E90E6"/>
<g filter="url(#y)">
<rect x="1214" y="177" width="380" height="380" rx="25" fill="#4E90E6" shape-rendering="crispEdges"/>
<g clip-path="url(#x)">
<g filter="url(#w)">
<path d="m1367.9 226.62 17.68-17.678" stroke="#3865A0" stroke-width="3"/>
</g>
<g filter="url(#v)">
<path d="m1368.1 208.94 17.68 17.678" stroke="#3865A0" stroke-width="3"/>
</g>
</g>
</g>
<rect x="163.5" y="-85.5" width="295" height="295" rx="22.5" fill="#fff"/>
<rect x="163.5" y="-85.5" width="295" height="295" rx="22.5" stroke="#4E90E6" stroke-width="5"/>
<rect x="161" y="29" width="120" height="120" rx="20" fill="#4E90E6"/>
<rect x="800" y="110" width="300" height="300" rx="25" fill="#4E90E6" fill-opacity=".5"/>
<rect x="1372.5" y="631.5" width="275" height="275" rx="22.5" fill="#fff"/>
<rect x="1372.5" y="631.5" width="275" height="275" rx="22.5" stroke="#4E90E6" stroke-width="5"/>
<rect x="1473" y="740" width="150" height="150" rx="15" fill="#4E90E6" fill-opacity=".5"/>
<path d="m494.939 454.018 31.82-31.82m-32.112.144 31.82 31.82m27.472-95.144 31.82-31.82m-32.112.144 31.82 31.82m-86.528 28.455 17.678-17.678m-17.556 0 17.677 17.678m646.202-270 17.68-17.678m-17.56 0 17.68 17.678m94.2 698.401 31.82-31.82m-32.11.144 31.82 31.82m-76.53 44.856 31.82-31.82m-32.11.144 31.82 31.82" stroke="#4E90E6" stroke-width="3"/>
<rect x="278" y="145" width="100" height="100" rx="15" fill="#4E90E6" fill-opacity=".5"/>
<rect x="783" y="617" width="400" height="400" rx="35" fill="#4E90E6" fill-opacity=".5"/>
<g filter="url(#u)">
<rect x="952" y="645" width="200" height="200" rx="25" fill="#3865A0" shape-rendering="crispEdges"/>
<g clip-path="url(#t)">
<g filter="url(#s)">
<path d="m980.94 819.62 17.678-17.678" stroke="#4E90E6" stroke-width="3"/>
</g>
<g filter="url(#r)">
<path d="m981.06 801.94 17.677 17.678" stroke="#4E90E6" stroke-width="3"/>
</g>
</g>
</g>
<rect x="348" y="-21" width="400" height="100" rx="35" fill="#4E90E6" fill-opacity=".5"/>
<rect x="1039" y="748" width="300" height="200" rx="35" fill="#4E90E6" fill-opacity=".5"/>
<rect x="692.5" y="300.5" width="195" height="195" rx="22.5" fill="#fff"/>
<rect x="692.5" y="300.5" width="195" height="195" rx="22.5" stroke="#4E90E6" stroke-width="5"/>
<g clip-path="url(#q)">
<rect x="6" y="483" width="416" height="394" rx="25" fill="#fff"/>
<rect x="348" y="627" width="120" height="120" rx="20" fill="#4E90E6"/>
</g>
<rect x="8.5" y="485.5" width="411" height="389" rx="22.5" stroke="#4E90E6" stroke-width="5"/>
<rect x="1517.5" y="-31.5" width="95" height="95" rx="22.5" fill="#030E1C"/>
<rect x="1517.5" y="-31.5" width="95" height="95" rx="22.5" stroke="#3865A0" stroke-width="5"/>
<rect x="134" y="306" width="100" height="100" rx="15" fill="#4E90E6" fill-opacity=".5"/>
<rect x="184" y="360" width="100" height="100" rx="15" fill="#4E90E6" fill-opacity=".5"/>
<rect x="603" y="136" width="45" height="45" rx="15" fill="#4E90E6" fill-opacity=".5"/>
<rect x="625" y="159" width="45" height="45" rx="15" fill="#4E90E6" fill-opacity=".5"/>
</g>
<defs>
<filter id="ae" x="0" y="0" width="1600" height="904" color-interpolation-filters="sRGB" filterUnits="userSpaceOnUse">
<feFlood flood-opacity="0" result="BackgroundImageFix"/>
<feBlend in="SourceGraphic" in2="BackgroundImageFix" result="shape"/>
<feColorMatrix in="SourceAlpha" result="hardAlpha" values="0 0 0 0 0 0 0 0 0 0 0 0 0 0 0 0 0 0 127 0"/>
<feMorphology in="SourceAlpha" radius="115" result="effect1_innerShadow_37_2"/>
<feOffset dy="4"/>
<feGaussianBlur stdDeviation="80"/>
<feComposite in2="hardAlpha" k2="-1" k3="1" operator="arithmetic"/>
<feColorMatrix values="0 0 0 0 1 0 0 0 0 1 0 0 0 0 1 0 0 0 1 0"/>
<feBlend in2="shape" result="effect1_innerShadow_37_2"/>
</filter>
<filter id="ad" x="1231" y="111" width="228" height="228" color-interpolation-filters="sRGB" filterUnits="userSpaceOnUse">
<feFlood flood-opacity="0" result="BackgroundImageFix"/>
<feColorMatrix in="SourceAlpha" result="hardAlpha" values="0 0 0 0 0 0 0 0 0 0 0 0 0 0 0 0 0 0 127 0"/>
<feOffset dx="-2" dy="3"/>
<feGaussianBlur stdDeviation="7"/>
<feComposite in2="hardAlpha" operator="out"/>
<feColorMatrix values="0 0 0 0 0.219608 0 0 0 0 0.396078 0 0 0 0 0.627451 0 0 0 1 0"/>
<feBlend in2="BackgroundImageFix" result="effect1_dropShadow_37_2"/>
<feBlend in="SourceGraphic" in2="effect1_dropShadow_37_2" result="shape"/>
</filter>
<filter id="ac" x="784" y="220" width="278" height="278" color-interpolation-filters="sRGB" filterUnits="userSpaceOnUse">
<feFlood flood-opacity="0" result="BackgroundImageFix"/>
<feColorMatrix in="SourceAlpha" result="hardAlpha" values="0 0 0 0 0 0 0 0 0 0 0 0 0 0 0 0 0 0 127 0"/>
<feOffset dx="-2" dy="3"/>
<feGaussianBlur stdDeviation="7"/>
<feComposite in2="hardAlpha" operator="out"/>
<feColorMatrix values="0 0 0 0 0.219608 0 0 0 0 0.396078 0 0 0 0 0.627451 0 0 0 1 0"/>
<feBlend in2="BackgroundImageFix" result="effect1_dropShadow_37_2"/>
<feBlend in="SourceGraphic" in2="effect1_dropShadow_37_2" result="shape"/>
</filter>
<filter id="ab" x="240" y="512" width="408" height="408" color-interpolation-filters="sRGB" filterUnits="userSpaceOnUse">
<feFlood flood-opacity="0" result="BackgroundImageFix"/>
<feColorMatrix in="SourceAlpha" result="hardAlpha" values="0 0 0 0 0 0 0 0 0 0 0 0 0 0 0 0 0 0 127 0"/>
<feOffset dx="-2" dy="3"/>
<feGaussianBlur stdDeviation="7"/>
<feComposite in2="hardAlpha" operator="out"/>
<feColorMatrix values="0 0 0 0 0.219608 0 0 0 0 0.396078 0 0 0 0 0.627451 0 0 0 1 0"/>
<feBlend in2="BackgroundImageFix" result="effect1_dropShadow_37_2"/>
<feBlend in="SourceGraphic" in2="effect1_dropShadow_37_2" result="shape"/>
</filter>
<filter id="aa" x="273.88" y="562.14" width="41.941" height="41.941" color-interpolation-filters="sRGB" filterUnits="userSpaceOnUse">
<feFlood flood-opacity="0" result="BackgroundImageFix"/>
<feColorMatrix in="SourceAlpha" result="hardAlpha" values="0 0 0 0 0 0 0 0 0 0 0 0 0 0 0 0 0 0 127 0"/>
<feOffset dy="4"/>
<feGaussianBlur stdDeviation="2"/>
<feComposite in2="hardAlpha" operator="out"/>
<feColorMatrix values="0 0 0 0 0 0 0 0 0 0 0 0 0 0 0 0 0 0 0.25 0"/>
<feBlend in2="BackgroundImageFix" result="effect1_dropShadow_37_2"/>
<feBlend in="SourceGraphic" in2="effect1_dropShadow_37_2" result="shape"/>
</filter>
<filter id="z" x="273.59" y="562.28" width="41.941" height="41.941" color-interpolation-filters="sRGB" filterUnits="userSpaceOnUse">
<feFlood flood-opacity="0" result="BackgroundImageFix"/>
<feColorMatrix in="SourceAlpha" result="hardAlpha" values="0 0 0 0 0 0 0 0 0 0 0 0 0 0 0 0 0 0 127 0"/>
<feOffset dy="4"/>
<feGaussianBlur stdDeviation="2"/>
<feComposite in2="hardAlpha" operator="out"/>
<feColorMatrix values="0 0 0 0 0 0 0 0 0 0 0 0 0 0 0 0 0 0 0.25 0"/>
<feBlend in2="BackgroundImageFix" result="effect1_dropShadow_37_2"/>
<feBlend in="SourceGraphic" in2="effect1_dropShadow_37_2" result="shape"/>
</filter>
<filter id="y" x="1198" y="166" width="408" height="408" color-interpolation-filters="sRGB" filterUnits="userSpaceOnUse">
<feFlood flood-opacity="0" result="BackgroundImageFix"/>
<feColorMatrix in="SourceAlpha" result="hardAlpha" values="0 0 0 0 0 0 0 0 0 0 0 0 0 0 0 0 0 0 127 0"/>
<feOffset dx="-2" dy="3"/>
<feGaussianBlur stdDeviation="7"/>
<feComposite in2="hardAlpha" operator="out"/>
<feColorMatrix values="0 0 0 0 0.219608 0 0 0 0 0.396078 0 0 0 0 0.627451 0 0 0 1 0"/>
<feBlend in2="BackgroundImageFix" result="effect1_dropShadow_37_2"/>
<feBlend in="SourceGraphic" in2="effect1_dropShadow_37_2" result="shape"/>
</filter>
<filter id="w" x="1362.9" y="207.88" width="27.799" height="27.799" color-interpolation-filters="sRGB" filterUnits="userSpaceOnUse">
<feFlood flood-opacity="0" result="BackgroundImageFix"/>
<feColorMatrix in="SourceAlpha" result="hardAlpha" values="0 0 0 0 0 0 0 0 0 0 0 0 0 0 0 0 0 0 127 0"/>
<feOffset dy="4"/>
<feGaussianBlur stdDeviation="2"/>
<feComposite in2="hardAlpha" operator="out"/>
<feColorMatrix values="0 0 0 0 0 0 0 0 0 0 0 0 0 0 0 0 0 0 0.25 0"/>
<feBlend in2="BackgroundImageFix" result="effect1_dropShadow_37_2"/>
<feBlend in="SourceGraphic" in2="effect1_dropShadow_37_2" result="shape"/>
</filter>
<filter id="v" x="1363" y="207.88" width="27.799" height="27.799" color-interpolation-filters="sRGB" filterUnits="userSpaceOnUse">
<feFlood flood-opacity="0" result="BackgroundImageFix"/>
<feColorMatrix in="SourceAlpha" result="hardAlpha" values="0 0 0 0 0 0 0 0 0 0 0 0 0 0 0 0 0 0 127 0"/>
<feOffset dy="4"/>
<feGaussianBlur stdDeviation="2"/>
<feComposite in2="hardAlpha" operator="out"/>
<feColorMatrix values="0 0 0 0 0 0 0 0 0 0 0 0 0 0 0 0 0 0 0.25 0"/>
<feBlend in2="BackgroundImageFix" result="effect1_dropShadow_37_2"/>
<feBlend in="SourceGraphic" in2="effect1_dropShadow_37_2" result="shape"/>
</filter>
<filter id="u" x="936" y="634" width="228" height="228" color-interpolation-filters="sRGB" filterUnits="userSpaceOnUse">
<feFlood flood-opacity="0" result="BackgroundImageFix"/>
<feColorMatrix in="SourceAlpha" result="hardAlpha" values="0 0 0 0 0 0 0 0 0 0 0 0 0 0 0 0 0 0 127 0"/>
<feOffset dx="-2" dy="3"/>
<feGaussianBlur stdDeviation="7"/>
<feComposite in2="hardAlpha" operator="out"/>
<feColorMatrix values="0 0 0 0 0.219608 0 0 0 0 0.396078 0 0 0 0 0.627451 0 0 0 1 0"/>
<feBlend in2="BackgroundImageFix" result="effect1_dropShadow_37_2"/>
<feBlend in="SourceGraphic" in2="effect1_dropShadow_37_2" result="shape"/>
</filter>
<filter id="s" x="975.88" y="800.88" width="27.799" height="27.799" color-interpolation-filters="sRGB" filterUnits="userSpaceOnUse">
<feFlood flood-opacity="0" result="BackgroundImageFix"/>
<feColorMatrix in="SourceAlpha" result="hardAlpha" values="0 0 0 0 0 0 0 0 0 0 0 0 0 0 0 0 0 0 127 0"/>
<feOffset dy="4"/>
<feGaussianBlur stdDeviation="2"/>
<feComposite in2="hardAlpha" operator="out"/>
<feColorMatrix values="0 0 0 0 0 0 0 0 0 0 0 0 0 0 0 0 0 0 0.25 0"/>
<feBlend in2="BackgroundImageFix" result="effect1_dropShadow_37_2"/>
<feBlend in="SourceGraphic" in2="effect1_dropShadow_37_2" result="shape"/>
</filter>
<filter id="r" x="976" y="800.88" width="27.799" height="27.799" color-interpolation-filters="sRGB" filterUnits="userSpaceOnUse">
<feFlood flood-opacity="0" result="BackgroundImageFix"/>
<feColorMatrix in="SourceAlpha" result="hardAlpha" values="0 0 0 0 0 0 0 0 0 0 0 0 0 0 0 0 0 0 127 0"/>
<feOffset dy="4"/>
<feGaussianBlur stdDeviation="2"/>
<feComposite in2="hardAlpha" operator="out"/>
<feColorMatrix values="0 0 0 0 0 0 0 0 0 0 0 0 0 0 0 0 0 0 0.25 0"/>
<feBlend in2="BackgroundImageFix" result="effect1_dropShadow_37_2"/>
<feBlend in="SourceGraphic" in2="effect1_dropShadow_37_2" result="shape"/>
</filter>
<clipPath id="af">
<path d="M0 0h1600v900H0z" fill="#fff"/>
</clipPath>
<clipPath id="x">
<path d="m1363 206h25v25h-25z" fill="#fff"/>
</clipPath>
<clipPath id="t">
<path d="m976 799h25v25h-25z" fill="#fff"/>
</clipPath>
<clipPath id="q">
<rect x="6" y="483" width="416" height="394" rx="25" fill="#fff"/>
</clipPath>
</defs>
</svg>
